<svg width="46" height="46" viewBox="0 0 46 46" fill="none" xmlns="http://www.w3.org/2000/svg">
<path fill-rule="evenodd" clip-rule="evenodd" d="M28.625 14.875C28.625 16.3668 28.0324 17.7976 26.9775 18.8525C25.9226 19.9074 24.4918 20.5 23 20.5C21.5082 20.5 20.0774 19.9074 19.0225 18.8525C17.9676 17.7976 17.375 16.3668 17.375 14.875C17.375 13.3832 17.9676 11.9524 19.0225 10.8975C20.0774 9.84263 21.5082 9.25 23 9.25C24.4918 9.25 25.9226 9.84263 26.9775 10.8975C28.0324 11.9524 28.625 13.3832 28.625 14.875ZM26.125 14.875C26.125 15.7038 25.7958 16.4987 25.2097 17.0847C24.6237 17.6708 23.8288 18 23 18C22.1712 18 21.3763 17.6708 20.7903 17.0847C20.2042 16.4987 19.875 15.7038 19.875 14.875C19.875 14.0462 20.2042 13.2513 20.7903 12.6653C21.3763 12.0792 22.1712 11.75 23 11.75C23.8288 11.75 24.6237 12.0792 25.2097 12.6653C25.7958 13.2513 26.125 14.0462 26.125 14.875Z" fill="#275122" fill-opacity="0.5"/>
<path fill-rule="evenodd" clip-rule="evenodd" d="M4.25506 0.574985C4.58542 0.547306 4.91324 0.651994 5.16642 0.866019C5.41959 1.08004 5.57737 1.38588 5.60506 1.71624L5.96381 5.92749C18.4976 3.70749 27.2163 3.68749 40.0363 5.93624L40.3938 1.71624C40.4077 1.55265 40.4536 1.3934 40.529 1.24758C40.6044 1.10175 40.7078 0.972213 40.8333 0.866352C40.9588 0.760491 41.1039 0.680384 41.2603 0.630605C41.4168 0.580827 41.5815 0.562352 41.7451 0.576235L44.2363 0.788735C44.5664 0.816732 44.872 0.97465 45.0857 1.22779C45.2995 1.48093 45.404 1.80857 45.3763 2.13874L44.9651 6.97499C45.1449 7.10038 45.2886 7.27087 45.3817 7.46934C45.4748 7.66781 45.5141 7.88729 45.4956 8.10574C45.4771 8.32419 45.4015 8.53394 45.2764 8.71394C45.1512 8.89393 44.9809 9.03785 44.7826 9.13124L44.3451 14.2837C44.3312 14.4474 44.2852 14.6068 44.2097 14.7527C44.1342 14.8986 44.0307 15.0282 43.9051 15.1341C43.7795 15.24 43.6343 15.32 43.4777 15.3697C43.3211 15.4194 43.1562 15.4378 42.9926 15.4237L40.5026 15.2112C40.1724 15.1832 39.8669 15.0253 39.6531 14.7722C39.4394 14.519 39.3349 14.1914 39.3626 13.8612L39.8226 8.43624C39.1508 8.31756 38.4783 8.20339 37.8051 8.09374C37.9256 8.46729 37.9868 8.85746 37.9863 9.24999L37.9913 9.68749V9.69748C38.0076 11.1362 38.0513 14.9325 37.6051 18.5525C37.3551 20.5775 36.9188 22.8762 36.0676 24.77C35.4313 26.1825 34.1251 28.2725 31.7501 28.995V30.355C32.6813 30.025 33.6151 29.7112 34.3876 29.5175C34.8763 29.3925 35.7688 29.1875 36.6951 29.27C37.5434 29.3376 38.352 29.6581 39.0163 30.19C39.4821 30.5693 39.8571 31.0481 40.1139 31.5912C40.3706 32.1343 40.5026 32.728 40.5001 33.3287C40.5001 34.4825 40.1288 37.2237 39.8326 39.175C39.6738 40.2225 39.5076 41.2225 39.3776 41.9012L39.3663 41.9562C39.2751 42.4312 39.1376 43.14 38.7538 43.785V43.7862L38.7513 43.79C38.6638 43.9362 38.2701 44.6025 37.4563 45.0925C36.9574 45.393 36.3954 45.5734 35.8148 45.6194C35.2342 45.6655 34.6508 45.5759 34.1107 45.3578C33.5707 45.1398 33.0887 44.7991 32.7029 44.3628C32.317 43.9265 32.0379 43.4064 31.8876 42.8437C31.6626 42.015 31.5963 41.15 31.5626 40.3762C31.551 40.1263 31.5414 39.8763 31.5338 39.6262C31.5188 39.195 31.5063 38.8012 31.4738 38.4125C30.4171 38.7841 29.3495 39.1243 28.2726 39.4325C26.6476 39.8887 24.7688 40.3025 23.0001 40.3025C21.2313 40.3025 19.3538 39.89 17.7276 39.4325C16.6679 39.1293 15.6175 38.795 14.5776 38.43L14.5526 38.7562C14.4811 39.7009 14.4036 40.6451 14.3201 41.5887C14.2826 42.0475 14.2213 42.7637 13.9263 43.4162C13.6766 43.9695 13.2964 44.4538 12.8182 44.8277C12.3401 45.2016 11.7784 45.4538 11.1812 45.5628C10.5841 45.6717 9.96949 45.6341 9.39013 45.4531C8.81077 45.2721 8.284 44.9532 7.85506 44.5237C6.94881 43.6175 6.82756 42.4887 6.75006 41.7762L6.72506 41.5587C6.70006 41.3487 6.65881 41.0737 6.60256 40.7337C6.50631 40.1375 6.38006 39.4337 6.24381 38.6687L6.18381 38.335C6.02484 37.4635 5.8765 36.5901 5.73881 35.715C5.62506 34.9687 5.50006 34.055 5.50006 33.3287C5.50006 32.28 5.91131 31.0625 6.98381 30.1912C7.71089 29.6067 8.60993 29.2773 9.54256 29.2537C10.2026 29.2287 10.8301 29.3362 11.2838 29.4375C11.4076 29.465 11.5176 29.4925 11.6126 29.5162C12.3851 29.7112 13.3176 30.025 14.2501 30.3537V28.975C14.0936 28.9235 13.9397 28.8647 13.7888 28.7987C12.2801 28.1375 11.3001 26.8737 10.6938 25.8075C10.4449 25.3699 10.2269 24.9155 10.0413 24.4475C9.34131 22.715 8.92006 20.665 8.64631 18.8075C8.05006 14.7625 8.00006 10.4812 8.00006 9.24999C8.00006 8.84249 8.06506 8.44999 8.18506 8.08374C7.52631 8.19124 6.85756 8.30624 6.17631 8.42874L6.63756 13.8612C6.66525 14.1914 6.56073 14.519 6.34697 14.7722C6.13321 15.0253 5.82769 15.1832 5.49756 15.2112L3.00631 15.4237C2.67615 15.4514 2.3485 15.3469 2.09536 15.1331C1.84222 14.9194 1.68431 14.6139 1.65631 14.2837L1.21881 9.13124C1.01979 9.03853 0.848763 8.89495 0.723 8.71499C0.597237 8.53504 0.521194 8.32507 0.502552 8.10632C0.483911 7.88756 0.52333 7.66776 0.616829 7.46912C0.710329 7.27048 0.854596 7.10003 1.03506 6.97499L0.623809 2.13749C0.596118 1.80732 0.700637 1.47968 0.914398 1.22654C1.12816 0.973401 1.43367 0.815482 1.76381 0.787485L4.25506 0.574985ZM14.8763 7.17749C15.2841 7.79168 15.5011 8.51275 15.5001 9.24999C15.5001 10.3812 15.5513 14.225 16.0663 17.7137C16.3251 19.4712 16.6651 20.8712 17.0413 21.75H29.2001L29.2126 21.7212L29.2276 21.6912C29.6113 20.8375 29.9401 19.4337 30.1613 17.635C30.5388 14.5725 30.5076 11.3187 30.4913 9.80999V9.80249L30.4876 9.24999C30.4876 8.48874 30.7126 7.78124 31.1026 7.18999C25.4776 6.61499 20.4188 6.61249 14.8763 7.17749ZM29.2501 28.9775V27.975C29.2501 27.6651 29.3652 27.3663 29.573 27.1365C29.7809 26.9066 30.0667 26.7622 30.3751 26.7312C32.0776 26.5587 33.1513 25.1562 33.7876 23.7437C34.4838 22.1962 34.8838 20.195 35.1251 18.2462C35.5488 14.8037 35.5076 11.1512 35.4913 9.71498V9.70874L35.4863 9.24999C35.4863 8.91846 35.3546 8.60052 35.1202 8.3661C34.8858 8.13168 34.5678 7.99999 34.2363 7.99999C33.9048 7.99999 33.5868 8.13168 33.3524 8.3661C33.118 8.60052 32.9863 8.91846 32.9863 9.24999L32.9913 9.78374V9.79749C33.0063 11.3062 33.0413 14.7025 32.6426 17.9412C32.4126 19.8137 32.0476 21.5162 31.5076 22.7162C31.2501 23.2887 30.9988 23.6687 30.7413 23.91C30.5096 24.1282 30.2034 24.2498 29.8851 24.25H16.2976C16.1021 24.25 15.9094 24.2043 15.7349 24.1164C15.5603 24.0284 15.4088 23.9008 15.2926 23.7437C15.083 23.4465 14.907 23.1271 14.7676 22.7912C14.2501 21.6062 13.8651 19.9287 13.5926 18.0787C13.0501 14.4037 13.0001 10.415 13.0001 9.24999C13.0001 8.91846 12.8684 8.60052 12.6339 8.3661C12.3995 8.13168 12.0816 7.99999 11.7501 7.99999C11.4185 7.99999 11.1006 8.13168 10.8662 8.3661C10.6318 8.60052 10.5001 8.91846 10.5001 9.24999C10.5001 10.2437 10.5351 13.2587 10.8713 16.4612C10.9401 17.1187 11.0213 17.7862 11.1188 18.4437C11.4013 20.36 11.8251 22.3012 12.4788 23.7937C13.0488 25.0962 14.0313 26.5537 15.6363 26.7312C15.9424 26.7648 16.2253 26.9102 16.4309 27.1394C16.6364 27.3687 16.75 27.6658 16.7501 27.9737V28.9775C17.0538 29.0687 17.4401 29.1762 17.8951 29.2837C19.1526 29.5787 20.9288 29.875 23.0001 29.875C24.7183 29.8734 26.4307 29.6751 28.1038 29.2837C28.5601 29.1762 28.9463 29.0687 29.2501 28.9775ZM16.7501 31.5737C18.7913 32.1029 20.8913 32.3717 23.0001 32.3737C25.1088 32.3717 27.2088 32.1029 29.2501 31.5737V32.1287C29.25 32.329 29.2981 32.5264 29.3903 32.7042C29.4825 32.882 29.6161 33.0351 29.7797 33.1505C29.9434 33.2659 30.1325 33.3403 30.3309 33.3674C30.5294 33.3945 30.7314 33.3735 30.9201 33.3062L31.6076 33.06C32.8851 32.6012 34.0963 32.1687 34.9988 31.94C35.4563 31.825 35.9976 31.7175 36.4738 31.76C36.7163 31.7812 37.0988 31.8525 37.4388 32.13C37.8363 32.4525 38.0001 32.9062 38.0001 33.33C38.0001 34.2512 37.6676 36.7787 37.3613 38.8C37.2312 39.6776 37.0849 40.5527 36.9226 41.425C36.8163 41.9725 36.7451 42.2737 36.6051 42.5087L36.5988 42.5187C36.4725 42.732 36.2858 42.9032 36.0624 43.0106C35.839 43.1181 35.5887 43.157 35.3432 43.1225C35.0977 43.088 34.8679 42.9817 34.6827 42.8169C34.4975 42.652 34.3653 42.4361 34.3026 42.1962V42.1937C34.1526 41.6412 34.0926 41.0025 34.0588 40.2625C34.0499 40.0546 34.0419 39.8467 34.0351 39.6387C34.0229 39.0808 33.9924 38.5234 33.9438 37.9675L33.8001 36.5725C33.7802 36.3843 33.718 36.203 33.6179 36.0424C33.5178 35.8817 33.3826 35.7459 33.2224 35.6452C33.0621 35.5444 32.8811 35.4814 32.693 35.4608C32.5049 35.4402 32.3145 35.4626 32.1363 35.5262C30.7413 36.0262 29.1538 36.5887 27.5963 37.0262C26.0388 37.4637 24.4238 37.8025 23.0001 37.8025C21.5763 37.8025 19.9613 37.4637 18.4038 37.0262C16.9413 36.6137 15.4513 36.0925 14.1201 35.6175L13.8738 35.53C13.6926 35.4652 13.4988 35.4431 13.3076 35.4654C13.1165 35.4878 12.933 35.554 12.7716 35.6589C12.6103 35.7638 12.4753 35.9045 12.3772 36.0701C12.2792 36.2358 12.2207 36.4218 12.2063 36.6137C12.1601 37.2262 12.1101 37.9037 12.0588 38.5637C11.9801 39.58 11.9026 40.5637 11.8426 41.2187L11.8376 41.275C11.7851 41.8562 11.7588 42.145 11.6488 42.3862L11.6413 42.4037C11.5558 42.5855 11.4277 42.7439 11.2681 42.8657C11.1084 42.9875 10.9217 43.0691 10.7238 43.1036C10.526 43.138 10.3227 43.1243 10.1312 43.0636C9.93977 43.003 9.76573 42.8971 9.62381 42.755C9.36131 42.4925 9.33006 42.245 9.21506 41.3225L9.20631 41.25C9.16699 40.9438 9.12198 40.6383 9.07131 40.3337C8.97131 39.715 8.84131 38.9925 8.70631 38.2362L8.64381 37.895C8.48886 37.0443 8.34426 36.1917 8.21006 35.3375C8.09381 34.5787 8.00006 33.84 8.00006 33.3287C8.00006 32.9062 8.16256 32.4537 8.56131 32.1287C8.80006 31.935 9.06131 31.8412 9.27756 31.7962C9.37006 31.7762 9.45381 31.7662 9.52506 31.7587C10.0026 31.7175 10.5438 31.825 11.0001 31.94C11.2251 31.9975 11.4676 32.065 11.7251 32.145C12.4501 32.3675 13.2988 32.6675 14.1851 32.985L15.0801 33.3062C15.2687 33.3735 15.4708 33.3945 15.6692 33.3674C15.8677 33.3403 16.0567 33.2659 16.2204 33.1505C16.3841 33.0351 16.5176 32.882 16.6098 32.7042C16.702 32.5264 16.7501 32.329 16.7501 32.1287V31.5737Z" fill="#275122" fill-opacity="0.5"/>
</svg>
