<svg width="40" height="51" viewBox="0 0 40 51" fill="none" xmlns="http://www.w3.org/2000/svg">
<path d="M17.5 11.75H15V14.25H17.5V11.75ZM20 11.75H22.5V14.25H20V11.75ZM27.5 11.75H25V14.25H27.5V11.75ZM15 16.75H17.5V19.25H15V16.75ZM22.5 16.75H20V19.25H22.5V16.75ZM25 16.75H27.5V19.25H25V16.75ZM17.5 21.75H15V24.25H17.5V21.75ZM20 21.75H22.5V24.25H20V21.75ZM27.5 21.75H25V24.25H27.5V21.75ZM15 26.75H17.5V29.25H15V26.75ZM22.5 26.75H20V29.25H22.5V26.75ZM15 31.75H17.5V34.25H15V31.75ZM22.5 31.75H20V34.25H22.5V31.75ZM15 36.75H17.5V39.25H15V36.75ZM22.5 36.75H20V39.25H22.5V36.75ZM15 41.75H17.5V44.25H15V41.75ZM22.5 41.75H20V44.25H22.5V41.75ZM28.75 33H32.5V30.5H28.75V33ZM32.5 38H28.75V35.5H32.5V38ZM28.75 43H32.5V40.5H28.75V43Z" fill="#275122" fill-opacity="0.5"/>
<path fill-rule="evenodd" clip-rule="evenodd" d="M11.25 0.5L31.25 8V25.5H36.25C36.5815 25.5 36.8995 25.6317 37.1339 25.8661C37.3683 26.1005 37.5 26.4185 37.5 26.75V48H38.75C39.0815 48 39.3995 48.1317 39.6339 48.3661C39.8683 48.6005 40 48.9185 40 49.25C40 49.5815 39.8683 49.8995 39.6339 50.1339C39.3995 50.3683 39.0815 50.5 38.75 50.5H1.25C0.918479 50.5 0.600537 50.3683 0.366117 50.1339C0.131696 49.8995 0 49.5815 0 49.25C0 48.9185 0.131696 48.6005 0.366117 48.3661C0.600537 48.1317 0.918479 48 1.25 48H2.5V21.75C2.5 21.4185 2.6317 21.1005 2.86612 20.8661C3.10054 20.6317 3.41848 20.5 3.75 20.5H6.25V11.75H8.75V20.5H11.25V0.5ZM13.75 4.1075L28.75 9.7325V25.5H25C24.6685 25.5 24.3505 25.6317 24.1161 25.8661C23.8817 26.1005 23.75 26.4185 23.75 26.75V48H13.75V4.1075ZM5 23V48H11.25V23H5ZM35 48H32.5V45.5H28.75V48H26.25V28H35V48Z" fill="#275122" fill-opacity="0.5"/>
</svg>
