<svg width="48" height="41" viewBox="0 0 48 41" fill="none" xmlns="http://www.w3.org/2000/svg">
<path fill-rule="evenodd" clip-rule="evenodd" d="M0.283399 5.00493C0.470899 8.36868 1.4284 10.4512 2.8309 11.7349C2.47971 11.994 2.20659 12.3446 2.04145 12.7486C1.87631 13.1525 1.82552 13.5941 1.89465 14.0249C2.6109 18.5687 4.39965 28.1787 8.0659 39.0112C8.20972 39.4781 8.49939 39.8866 8.89241 40.1768C9.28543 40.4669 9.76111 40.6235 10.2497 40.6235C10.7382 40.6235 11.2139 40.4669 11.6069 40.1768C11.9999 39.8866 12.2896 39.4781 12.4334 39.0112C16.1009 28.1787 17.8897 18.5687 18.6047 14.0249C18.6736 13.5941 18.6228 13.1525 18.4577 12.7486C18.2925 12.3447 18.0195 11.994 17.6684 11.7349C19.0709 10.4512 20.0284 8.36868 20.2159 5.00493C20.2235 4.84163 20.1974 4.67852 20.1393 4.52573C20.0812 4.37294 19.9923 4.23372 19.8781 4.11674C19.7639 3.99975 19.6269 3.90748 19.4756 3.84567C19.3243 3.78386 19.1618 3.75382 18.9984 3.75743C16.9634 3.78743 15.3472 3.91118 14.0859 4.33493C13.5647 2.96118 12.5146 1.66493 10.9321 0.482426C10.735 0.335328 10.4956 0.255859 10.2497 0.255859C10.0037 0.255859 9.76429 0.335328 9.56715 0.482426C7.9984 1.65618 6.9509 2.93993 6.42715 4.30118C5.20215 3.93993 3.5984 3.79618 1.50465 3.75993C1.34113 3.75582 1.17851 3.7854 1.02691 3.84683C0.875308 3.90826 0.737966 4.00021 0.623421 4.11699C0.508877 4.23376 0.41958 4.37285 0.361085 4.5256C0.30259 4.67836 0.276147 4.84151 0.283399 5.00493ZM12.6009 7.47118L11.7484 5.22118C11.5109 4.59743 11.0497 3.89618 10.2497 3.15868C9.4584 3.88993 8.99715 4.58368 8.75965 5.20118L7.92965 7.35118L5.71965 6.69868C5.06715 6.50618 4.17715 6.37868 2.9259 6.30993C3.2984 8.71993 4.1909 9.73868 5.0059 10.2649C6.16965 11.0187 7.86715 11.2474 10.2122 11.2499H10.2871C12.6334 11.2474 14.3296 11.0187 15.4934 10.2649C16.3097 9.73868 17.2034 8.71868 17.5747 6.30243C16.3622 6.36618 15.5121 6.49243 14.8821 6.70368L12.6009 7.47118ZM4.38215 13.7499H16.1172C15.7597 16.0087 15.1372 19.4999 14.1547 23.7499H8.99965V26.2499H13.5559C12.6934 29.7274 11.6059 33.6037 10.2497 37.6624C9.81658 36.3642 9.40195 35.0599 9.0059 33.7499H10.2497V31.2499H8.2734C7.2202 27.5348 6.30375 23.7823 5.5259 19.9999H8.99965V17.4999H5.0334C4.79893 16.2531 4.58225 15.0029 4.3834 13.7499H4.38215Z" fill="#275122" fill-opacity="0.5"/>
<path d="M41.8021 25.0374C42.1237 25.1177 42.4001 25.3224 42.5708 25.6065C42.7414 25.8906 42.7923 26.2308 42.7121 26.5524C42.3643 27.9848 41.6291 29.2939 40.5869 30.3364C39.5447 31.3788 38.2357 32.1143 36.8034 32.4624C36.6437 32.5036 36.4775 32.5128 36.3142 32.4895C36.151 32.4662 35.9939 32.4108 35.8522 32.3266C35.7105 32.2423 35.5868 32.1308 35.4883 31.9985C35.3898 31.8663 35.3185 31.7158 35.2784 31.5558C35.2384 31.3959 35.2303 31.2296 35.2548 31.0665C35.2793 30.9034 35.3358 30.7468 35.4211 30.6057C35.5064 30.4645 35.6187 30.3416 35.7517 30.2441C35.8847 30.1466 36.0356 30.0763 36.1959 30.0374C37.189 29.7995 38.0968 29.2913 38.8189 28.5692C39.541 27.8471 40.0492 26.9393 40.2871 25.9462C40.3677 25.6249 40.5725 25.3487 40.8566 25.1783C41.1407 25.0079 41.4807 24.9572 41.8021 25.0374Z" fill="#275122" fill-opacity="0.5"/>
<path fill-rule="evenodd" clip-rule="evenodd" d="M34.8125 16.2837C33.4275 13.0425 33.6675 9.59996 36.1338 7.13371L34.3662 5.36621C31.4537 8.27871 30.9488 12.0875 31.925 15.5887C26.2063 13 20.25 17.76 20.25 25C20.25 31.9037 26.4062 37.5 34 37.5C41.5938 37.5 47.75 31.9037 47.75 25C47.75 17.225 40.8813 12.3112 34.8125 16.2837ZM34 20.0762L32.4375 18.8262C30.1163 16.9687 27.8275 17.0725 26.095 18.1425C24.2625 19.275 22.75 21.6975 22.75 25C22.75 30.3037 27.5575 35 34 35C40.4425 35 45.25 30.3037 45.25 25C45.25 21.6975 43.7375 19.275 41.905 18.1425C40.1725 17.0725 37.8838 16.9687 35.5613 18.8275L34 20.0762Z" fill="#275122" fill-opacity="0.5"/>
<path d="M36.5 12.5C40.25 12.5 42.75 10 42.75 6.25C39 6.25 36.5 8.75 36.5 12.5Z" fill="#275122" fill-opacity="0.5"/>
</svg>
