<svg width="46" height="45" viewBox="0 0 46 45" fill="none" xmlns="http://www.w3.org/2000/svg">
<path fill-rule="evenodd" clip-rule="evenodd" d="M23 25C29.9062 25 35.5 19.4062 35.5 12.5C35.5 5.59375 29.9062 0 23 0C16.0938 0 10.5 5.59375 10.5 12.5C10.5 19.4062 16.0938 25 23 25ZM33 12.5C33 18.025 28.525 22.5 23 22.5C17.475 22.5 13 18.025 13 12.5C13 6.975 17.475 2.5 23 2.5C28.525 2.5 33 6.975 33 12.5ZM29.2938 27.3425L25.5 38.18V37.5L24.7812 32.4738C25.0107 32.4254 25.2219 32.3135 25.3908 32.1508C25.5597 31.9881 25.6794 31.7812 25.7362 31.5537L26.3612 29.0537C26.4074 28.8695 26.411 28.6772 26.3717 28.4914C26.3324 28.3056 26.2513 28.1312 26.1346 27.9815C26.0178 27.8317 25.8685 27.7105 25.6979 27.6271C25.5273 27.5437 25.3399 27.5002 25.15 27.5H20.8525C20.6626 27.5001 20.4753 27.5434 20.3046 27.6266C20.134 27.7099 19.9846 27.831 19.8677 27.9806C19.7508 28.1302 19.6696 28.3045 19.6301 28.4903C19.5907 28.676 19.5941 28.8683 19.64 29.0525L20.265 31.5525C20.3217 31.7802 20.4413 31.9874 20.6102 32.1503C20.7791 32.3132 20.9904 32.4253 21.22 32.4738L20.5175 37.3887L16.7 27.3288L16.675 27.275C16.4905 26.8963 16.1824 26.5919 15.8014 26.4121C15.4205 26.2323 14.9896 26.1879 14.58 26.2862C14.1537 26.39 13.6837 26.4987 13.1875 26.6162C12.0162 26.89 10.695 27.1987 9.4425 27.5475C7.67625 28.04 5.84625 28.66 4.575 29.495C2.23375 31.0325 0.5 33.0662 0.5 35.625V45H45.5V35.625C45.5 33.0662 43.7675 31.0312 41.425 29.495C40.155 28.66 38.325 28.04 36.5588 27.5475C35.3169 27.2115 34.0683 26.901 32.8138 26.6162C32.3491 26.5083 31.8849 26.3983 31.4212 26.2862C31.0118 26.188 30.5811 26.2325 30.2004 26.4122C29.8197 26.592 29.5117 26.8964 29.3275 27.275L29.2938 27.3425ZM32.305 29.065L31.4138 28.855L26.6362 42.5H43V35.625C43 34.3175 42.12 32.9412 40.0538 31.585C39.1363 30.9812 37.6413 30.4438 35.8888 29.9562C34.7009 29.6344 33.5052 29.3372 32.305 29.065ZM14.6025 28.8512L19.7812 42.5H3V35.625C3 34.3175 3.88 32.9412 5.94625 31.585C6.86375 30.9812 8.35875 30.4438 10.1112 29.9562C11.299 29.634 12.4934 29.3369 13.6938 29.065L14.6025 28.8512Z" fill="#275122" fill-opacity="0.5"/>
</svg>
