<svg width="48" height="36" viewBox="0 0 48 36" fill="none" xmlns="http://www.w3.org/2000/svg">
<path d="M25.6341 0.672445C25.442 0.559457 25.2232 0.499878 25.0003 0.499878C24.7775 0.499878 24.5587 0.559457 24.3666 0.672445L2.03906 13.8062L3.30656 15.9612L25.0003 3.19995L46.6941 15.9624L47.9616 13.8074L40.0003 9.12495V2.99995C40.0003 2.66843 39.8686 2.35048 39.6342 2.11606C39.3998 1.88164 39.0818 1.74995 38.7503 1.74995H35.0003C34.6688 1.74995 34.3508 1.88164 34.1164 2.11606C33.882 2.35048 33.7503 2.66843 33.7503 2.99995V5.4462L25.6341 0.672445ZM12.5003 19.2499H26.2503V26.7499H12.5003V19.2499Z" fill="#275122" fill-opacity="0.5"/>
<path fill-rule="evenodd" clip-rule="evenodd" d="M25 5.5L7.5 15.5V33H1.25C0.918479 33 0.600537 33.1317 0.366117 33.3661C0.131696 33.6005 0 33.9185 0 34.25C0 34.5815 0.131696 34.8995 0.366117 35.1339C0.600537 35.3683 0.918479 35.5 1.25 35.5H46.25C46.5815 35.5 46.8995 35.3683 47.1339 35.1339C47.3683 34.8995 47.5 34.5815 47.5 34.25C47.5 33.9185 47.3683 33.6005 47.1339 33.3661C46.8995 33.1317 46.5815 33 46.25 33H42.5V15.5L25 5.5ZM25 8.37875L10 16.9512V33H30V19.25H37.5V33H40V16.95L25 8.37875Z" fill="#275122" fill-opacity="0.5"/>
</svg>
